<svg width="76" height="25" viewBox="0 0 76 25" fill="none" xmlns="http://www.w3.org/2000/svg">
<path d="M1.33 20C1.16333 20 1.08 19.9167 1.08 19.75V6.92C1.08 6.75333 1.16333 6.67 1.33 6.67H4C4.16667 6.67 4.25 6.75333 4.25 6.92V19.75C4.25 19.9167 4.16667 20 4 20H1.33Z" fill="#D92D20"/>
<path d="M6.62391 20C6.45724 20 6.37391 19.9167 6.37391 19.75V6.92C6.37391 6.75333 6.45724 6.67 6.62391 6.67H12.1139C12.2739 6.67 12.4072 6.71333 12.5139 6.8L14.8139 9.08C14.8872 9.14667 14.9306 9.20333 14.9439 9.25C14.9639 9.29667 14.9739 9.37333 14.9739 9.48V12.22C14.9739 12.3067 14.9372 12.3867 14.8639 12.46L13.7439 13.56L12.8839 14.3L13.9339 15.7L15.0739 18.12C15.1006 18.18 15.1206 18.24 15.1339 18.3C15.1539 18.3533 15.1639 18.42 15.1639 18.5V19.75C15.1639 19.9167 15.0806 20 14.9139 20H12.2239C12.0772 20 11.9772 19.9333 11.9239 19.8L10.3339 15.24H9.64391V19.75C9.64391 19.9167 9.56057 20 9.39391 20H6.62391ZM10.6739 12.61C11.2006 12.61 11.5606 12.5 11.7539 12.28C11.9539 12.0533 12.0539 11.6433 12.0539 11.05C12.0539 10.4433 11.9539 10.03 11.7539 9.81C11.5606 9.58333 11.2006 9.47 10.6739 9.47C10.1606 9.47 9.80057 9.58333 9.59391 9.81C9.39391 10.03 9.29391 10.4433 9.29391 11.05C9.29391 11.6433 9.39391 12.0533 9.59391 12.28C9.80057 12.5 10.1606 12.61 10.6739 12.61ZM31.9308 20C31.7774 20 31.6441 19.9433 31.5308 19.83L29.5308 17.83C29.4174 17.7233 29.3608 17.59 29.3608 17.43V11.57C29.3608 11.41 29.4174 11.2767 29.5308 11.17L31.5308 9.17C31.6441 9.05667 31.7774 9 31.9308 9H37.2808C37.4474 9 37.5308 9.08333 37.5308 9.25V19.75C37.5308 19.9167 37.4474 20 37.2808 20H35.1508C35.0641 20 34.9974 19.9833 34.9508 19.95C34.9041 19.9167 34.8541 19.8767 34.8008 19.83L34.3008 19.33L33.8008 19.83C33.6941 19.9433 33.5608 20 33.4008 20H31.9308ZM33.1308 17.57H33.7608C33.9674 17.57 34.1074 17.5267 34.1808 17.44C34.2608 17.3533 34.3008 17.2033 34.3008 16.99V11.43H33.1308C32.9241 11.43 32.7808 11.4733 32.7008 11.56C32.6208 11.6467 32.5808 11.7967 32.5808 12.01V16.99C32.5808 17.2033 32.6174 17.3533 32.6908 17.44C32.7708 17.5267 32.9174 17.57 33.1308 17.57ZM42.3605 20C42.2071 20 42.0738 19.9433 41.9605 19.83L39.9605 17.83C39.8471 17.7233 39.7905 17.59 39.7905 17.43V11.57C39.7905 11.41 39.8471 11.2767 39.9605 11.17L41.9605 9.17C42.0738 9.05667 42.2071 9 42.3605 9H43.8305C43.9905 9 44.1238 9.05667 44.2305 9.17L44.7305 9.67V6.92C44.7305 6.75333 44.8138 6.67 44.9805 6.67H47.7105C47.8771 6.67 47.9605 6.75333 47.9605 6.92V19.75C47.9605 19.9167 47.8771 20 47.7105 20H45.5705C45.4838 20 45.4171 19.9833 45.3705 19.95C45.3305 19.9167 45.2838 19.8767 45.2305 19.83L44.7305 19.33L44.2305 19.83C44.1238 19.9433 43.9905 20 43.8305 20H42.3605ZM43.5605 17.57H44.1905C44.3971 17.57 44.5371 17.5267 44.6105 17.44C44.6905 17.3533 44.7305 17.2033 44.7305 16.99V11.43H43.5605C43.3538 11.43 43.2105 11.4733 43.1305 11.56C43.0505 11.6467 43.0105 11.7967 43.0105 12.01V16.99C43.0105 17.2033 43.0471 17.3533 43.1205 17.44C43.2005 17.5267 43.3471 17.57 43.5605 17.57ZM50.5302 20C50.3635 20 50.2802 19.9167 50.2802 19.75V9.25C50.2802 9.08333 50.3635 9 50.5302 9H53.2402C53.4068 9 53.4902 9.08333 53.4902 9.25V19.75C53.4902 19.9167 53.4068 20 53.2402 20H50.5302ZM50.4802 8.17C50.3468 8.17 50.2802 8.10333 50.2802 7.97V6.7C50.2802 6.56667 50.3468 6.5 50.4802 6.5H53.3102C53.4302 6.5 53.4902 6.56667 53.4902 6.7V7.97C53.4902 8.10333 53.4302 8.17 53.3102 8.17H50.4802ZM56.0184 20C55.8518 20 55.7684 19.9167 55.7684 19.75V9.25C55.7684 9.08333 55.8518 9 56.0184 9H61.3684C61.5218 9 61.6551 9.05667 61.7684 9.17L63.7684 11.17C63.8818 11.2767 63.9384 11.41 63.9384 11.57V19.75C63.9384 19.9167 63.8551 20 63.6884 20H60.9684C60.8018 20 60.7184 19.9167 60.7184 19.75V12.08C60.7184 11.7733 60.5618 11.62 60.2484 11.62H58.9884V19.75C58.9884 19.9167 58.9051 20 58.7384 20H56.0184ZM69.1163 23.42C68.9496 23.42 68.8663 23.3367 68.8663 23.17V21.58C68.8663 21.4467 68.9163 21.37 69.0163 21.35L70.4063 20.94L71.4062 20.37C71.5063 20.3167 71.5563 20.2133 71.5563 20.06V18.52L70.6563 19.35C70.5429 19.4633 70.4096 19.52 70.2563 19.52L68.6263 19.58C68.4729 19.58 68.3396 19.5267 68.2263 19.42L66.3863 17.56C66.2729 17.4533 66.2163 17.32 66.2163 17.16V11.57C66.2163 11.41 66.2729 11.2767 66.3863 11.17L68.3863 9.17C68.4996 9.05667 68.6329 9 68.7863 9H74.1363C74.3029 9 74.3863 9.08333 74.3863 9.25V21.29C74.3863 21.4633 74.3296 21.5967 74.2163 21.69L72.9263 22.55L71.2863 23.3C71.1929 23.34 71.1196 23.37 71.0663 23.39C71.0196 23.41 70.9396 23.42 70.8263 23.42H69.1163ZM69.9863 17.3H70.6163C70.8229 17.3 70.9629 17.2567 71.0362 17.17C71.1163 17.0833 71.1563 16.9367 71.1563 16.73V11.43H69.9863C69.7796 11.43 69.6363 11.4733 69.5563 11.56C69.4763 11.6467 69.4363 11.7967 69.4363 12.01V16.73C69.4363 16.9367 69.4729 17.0833 69.5463 17.17C69.6263 17.2567 69.7729 17.3 69.9863 17.3Z" fill="white"/>
<path d="M15.6714 13.623C15.0302 12.4029 14.6257 10.7573 15.5113 9.71843C16.3821 8.69533 18.0065 8.90809 19.1269 9.61861C20.2376 10.3212 21.0877 11.3864 21.9159 12.4318C22.2437 11.255 22.6887 10.1151 23.2413 9.03286C23.6183 8.29607 24.0854 7.54878 24.8116 7.19811C26.0618 6.59397 27.5873 7.4529 28.3147 8.67563C28.7377 9.38615 28.9763 10.2162 28.9983 11.0528C29.0421 12.7181 28.2518 14.2822 27.3528 15.6593C26.5628 16.8693 25.6716 18.0072 24.6923 19.0554C24.362 19.4089 24.0077 19.7617 23.5644 19.9336C22.427 20.3741 20.0757 18.5038 19.1744 17.8039C17.7408 16.6908 16.5318 15.2601 15.6714 13.623Z" fill="#D92D20"/>
</svg>
