<svg width="83" height="29" viewBox="0 0 83 29" fill="none" xmlns="http://www.w3.org/2000/svg">
<path d="M0.351562 12.5234L4.66406 12.5703C4.41406 13.5234 4.22656 14.3359 4.10156 15.0078C3.99219 15.6797 3.92188 16.2422 3.89062 16.6953C3.82812 17.2109 3.8125 17.6484 3.84375 18.0078C3.89062 18.3359 3.96875 18.6875 4.07812 19.0625C4.17188 19.375 4.3125 19.7344 4.5 20.1406C4.6875 20.5469 4.9375 20.9531 5.25 21.3594C5.0625 21.2969 4.85938 21.25 4.64062 21.2188C4.42188 21.1875 4.21875 21.1641 4.03125 21.1484C3.8125 21.1328 3.59375 21.1328 3.375 21.1484C3.15625 21.1641 2.91406 21.1875 2.64844 21.2188C2.42969 21.25 2.16406 21.2891 1.85156 21.3359C1.53906 21.3828 1.21094 21.4453 0.867188 21.5234C1.10156 20.8203 1.28125 20.2109 1.40625 19.6953C1.54688 19.1797 1.64844 18.75 1.71094 18.4062C1.77344 18 1.8125 17.6719 1.82812 17.4219C1.82812 17.1094 1.82812 16.7578 1.82812 16.3672C1.82812 15.9609 1.82812 15.5703 1.82812 15.1953C1.82812 14.8203 1.82031 14.4922 1.80469 14.2109C1.78906 13.9141 1.75781 13.7266 1.71094 13.6484L1.47656 13.4141C1.38281 13.3359 1.24219 13.2266 1.05469 13.0859C0.882812 12.9297 0.648438 12.7422 0.351562 12.5234ZM2.01562 8.91406C2.34375 8.74219 2.67188 8.69531 3 8.77344C3.34375 8.85156 3.60938 9 3.79688 9.21875C3.98438 9.4375 4.04688 9.69531 3.98438 9.99219C3.9375 10.2891 3.6875 10.5781 3.23438 10.8594C2.78125 11.125 2.38281 11.2188 2.03906 11.1406C1.69531 11.0625 1.45312 10.8984 1.3125 10.6484C1.17188 10.3984 1.14844 10.1094 1.24219 9.78125C1.33594 9.4375 1.59375 9.14844 2.01562 8.91406Z" fill="#D92D20"/>
<path d="M5.03906 8.74219C5.45573 8.80729 5.83333 8.86589 6.17188 8.91797C6.51042 8.95703 6.80339 8.98958 7.05078 9.01562C7.33724 9.05469 7.59115 9.08724 7.8125 9.11328C8.08594 9.15234 8.49609 9.10677 9.04297 8.97656C9.58984 8.83333 10.1888 8.70312 10.8398 8.58594C11.5039 8.45573 12.181 8.38411 12.8711 8.37109C13.5612 8.34505 14.1927 8.46875 14.7656 8.74219C15.3385 9.01562 15.8073 9.28906 16.1719 9.5625C16.5365 9.83594 16.8229 10.1289 17.0312 10.4414C17.2526 10.7409 17.4089 11.0599 17.5 11.3984C17.5911 11.737 17.6432 12.1081 17.6562 12.5117C17.6432 13.1107 17.5 13.6901 17.2266 14.25C17.1094 14.4844 16.9531 14.7318 16.7578 14.9922C16.5755 15.2396 16.3477 15.4805 16.0742 15.7148C15.8008 15.9492 15.4753 16.1706 15.0977 16.3789C14.7331 16.5872 14.3034 16.7695 13.8086 16.9258C14.2904 17.069 14.6875 17.2383 15 17.4336C15.3255 17.6289 15.5859 17.8112 15.7812 17.9805C16.0156 18.1888 16.1914 18.3906 16.3086 18.5859C16.4518 18.8594 16.5495 19.0938 16.6016 19.2891C16.6536 19.4844 16.6862 19.6732 16.6992 19.8555C16.7253 20.0247 16.7578 20.2005 16.7969 20.3828C16.8359 20.5651 16.9206 20.7734 17.0508 21.0078C17.1549 21.1901 17.2786 21.3789 17.4219 21.5742C17.5521 21.7435 17.7018 21.9258 17.8711 22.1211C18.0534 22.3164 18.2747 22.5052 18.5352 22.6875C18.1706 22.7005 17.832 22.707 17.5195 22.707C17.2201 22.707 16.9596 22.707 16.7383 22.707C16.4779 22.707 16.2305 22.7005 15.9961 22.6875C15.7617 22.6745 15.4688 22.668 15.1172 22.668C14.8177 22.668 14.4336 22.668 13.9648 22.668C13.5091 22.668 12.9557 22.6745 12.3047 22.6875C12.5911 22.4661 12.8255 22.2448 13.0078 22.0234C13.1901 21.8021 13.3333 21.6003 13.4375 21.418C13.5547 21.2096 13.6393 21.0078 13.6914 20.8125C13.7565 20.4609 13.763 20.0964 13.7109 19.7188C13.6719 19.3932 13.5677 19.0352 13.3984 18.6445C13.2292 18.2409 12.9557 17.8372 12.5781 17.4336C12.2005 17.4987 11.8815 17.5508 11.6211 17.5898C11.3737 17.6159 11.1589 17.6419 10.9766 17.668C10.7682 17.694 10.599 17.7135 10.4688 17.7266C10.3516 17.7396 10.2214 17.7526 10.0781 17.7656C9.96094 17.7786 9.83073 17.7982 9.6875 17.8242C9.55729 17.8372 9.43359 17.8568 9.31641 17.8828C9.29036 18.4427 9.29036 18.931 9.31641 19.3477C9.34245 19.7513 9.375 20.0898 9.41406 20.3633C9.46615 20.6888 9.52474 20.9688 9.58984 21.2031C9.65495 21.4375 9.74609 21.6654 9.86328 21.8867C9.95443 22.069 10.0716 22.2643 10.2148 22.4727C10.3581 22.668 10.5208 22.8307 10.7031 22.9609C10.3646 22.9609 10.0391 22.9609 9.72656 22.9609C9.42708 22.9609 9.15365 22.9544 8.90625 22.9414C8.61979 22.9414 8.34635 22.9349 8.08594 22.9219C7.82552 22.9089 7.53255 22.9023 7.20703 22.9023C6.93359 22.9023 6.60807 22.9023 6.23047 22.9023C5.86589 22.9023 5.46875 22.9089 5.03906 22.9219C5.3776 22.5703 5.64453 22.2708 5.83984 22.0234C6.03516 21.776 6.1849 21.5677 6.28906 21.3984C6.40625 21.2161 6.47786 21.0599 6.50391 20.9297C6.52995 20.7214 6.54948 20.3503 6.5625 19.8164C6.58854 19.2695 6.60807 18.6445 6.62109 17.9414C6.63411 17.2383 6.64062 16.5026 6.64062 15.7344C6.64062 14.9661 6.63411 14.25 6.62109 13.5859C6.60807 12.9089 6.59505 12.3294 6.58203 11.8477C6.56901 11.3659 6.55599 11.0599 6.54297 10.9297C6.50391 10.6953 6.41927 10.4609 6.28906 10.2266C6.1849 10.0182 6.03516 9.78385 5.83984 9.52344C5.64453 9.26302 5.3776 9.0026 5.03906 8.74219ZM12.4219 15.6172C12.5521 15.5391 12.6628 15.4609 12.7539 15.3828C12.8451 15.3047 12.9232 15.181 12.9883 15.0117C13.0534 14.8294 13.1055 14.5755 13.1445 14.25C13.1966 13.9245 13.2552 13.4818 13.3203 12.9219C13.3724 12.362 13.3333 11.8997 13.2031 11.5352C13.0859 11.1706 12.9232 10.8841 12.7148 10.6758C12.5195 10.4544 12.2982 10.3047 12.0508 10.2266C11.8164 10.1354 11.6081 10.0898 11.4258 10.0898C11.0612 10.0898 10.7031 10.2005 10.3516 10.4219C10 10.6432 9.73307 10.9427 9.55078 11.3203C9.48568 11.4896 9.42708 11.7695 9.375 12.1602C9.33594 12.4987 9.3099 12.9674 9.29688 13.5664C9.28385 14.1654 9.30339 14.9531 9.35547 15.9297C9.85026 16.0078 10.2865 16.0404 10.6641 16.0273C11.0417 16.0013 11.3607 15.9557 11.6211 15.8906C11.9336 15.8255 12.2005 15.7344 12.4219 15.6172ZM32.7148 15.0898C32.7799 15.0117 32.819 14.8685 32.832 14.6602C32.8581 14.4388 32.9102 14.1914 32.9883 13.918C33.0794 13.6445 33.2292 13.3581 33.4375 13.0586C33.6458 12.7591 33.9844 12.4792 34.4531 12.2188C34.9089 11.9583 35.3516 11.8021 35.7812 11.75C36.2109 11.6979 36.6211 11.7174 37.0117 11.8086C37.4023 11.8997 37.7669 12.043 38.1055 12.2383C38.457 12.4336 38.776 12.6484 39.0625 12.8828C39.2578 13.0391 39.4141 13.2669 39.5312 13.5664C39.6484 13.8529 39.7396 14.1784 39.8047 14.543C39.8698 14.9076 39.9154 15.2917 39.9414 15.6953C39.9805 16.0859 40.0065 16.4701 40.0195 16.8477C40.0326 17.2122 40.0391 17.5508 40.0391 17.8633C40.0521 18.1628 40.0781 18.4102 40.1172 18.6055C40.1693 18.8919 40.2604 19.1393 40.3906 19.3477C40.5208 19.543 40.6641 19.7122 40.8203 19.8555C40.9766 19.9857 41.1328 20.0898 41.2891 20.168C41.4453 20.2461 41.582 20.3047 41.6992 20.3438C41.7773 20.3828 41.849 20.4089 41.9141 20.4219C42.0443 20.474 42.1354 20.474 42.1875 20.4219C42.1094 20.6042 42.0378 20.7604 41.9727 20.8906C41.9076 21.0208 41.8555 21.1315 41.8164 21.2227C41.7643 21.3268 41.7188 21.4115 41.6797 21.4766C41.6406 21.5547 41.5951 21.6263 41.543 21.6914C41.5039 21.7565 41.4518 21.8281 41.3867 21.9062C41.3216 21.9844 41.2565 22.069 41.1914 22.1602C41.0221 22.0951 40.8594 22.0169 40.7031 21.9258C40.5599 21.8346 40.4297 21.75 40.3125 21.6719C40.1693 21.5807 40.0391 21.4896 39.9219 21.3984C39.8047 21.3073 39.694 21.2031 39.5898 21.0859C39.4987 20.9818 39.401 20.8711 39.2969 20.7539C39.2057 20.6367 39.1276 20.5065 39.0625 20.3633C38.9844 20.5326 38.7956 20.7734 38.4961 21.0859C38.2096 21.3984 37.832 21.6849 37.3633 21.9453C36.8945 22.1927 36.3477 22.3685 35.7227 22.4727C35.1107 22.5768 34.4336 22.5052 33.6914 22.2578C33.3659 22.1536 33.0599 22.0039 32.7734 21.8086C32.487 21.6003 32.2396 21.3529 32.0312 21.0664C31.8359 20.7799 31.6927 20.4544 31.6016 20.0898C31.5234 19.7122 31.5299 19.2956 31.6211 18.8398C31.7122 18.3841 31.875 18 32.1094 17.6875C32.3438 17.375 32.6237 17.1211 32.9492 16.9258C33.2747 16.7305 33.6393 16.5807 34.043 16.4766C34.4466 16.3724 34.8633 16.3008 35.293 16.2617C35.6315 16.2487 35.9701 16.2682 36.3086 16.3203C36.5951 16.3724 36.8945 16.4701 37.207 16.6133C37.5195 16.7435 37.7865 16.9453 38.0078 17.2188C37.9948 16.5286 37.9688 15.9818 37.9297 15.5781C37.9036 15.1615 37.8776 14.8424 37.8516 14.6211C37.7995 14.3607 37.7539 14.1784 37.7148 14.0742C37.6497 13.9831 37.5781 13.8789 37.5 13.7617C37.4349 13.6445 37.3503 13.5404 37.2461 13.4492C37.1419 13.3451 37.0117 13.2604 36.8555 13.1953C36.6992 13.1302 36.5169 13.1042 36.3086 13.1172C36.0872 13.1302 35.9115 13.1888 35.7812 13.293C35.651 13.3971 35.5469 13.5208 35.4688 13.6641C35.4036 13.7943 35.3646 13.9375 35.3516 14.0938C35.3385 14.25 35.3451 14.3867 35.3711 14.5039C35.3971 14.582 35.4362 14.6667 35.4883 14.7578C35.5404 14.8359 35.612 14.9206 35.7031 15.0117C35.7943 15.1029 35.918 15.181 36.0742 15.2461C35.7747 15.2852 35.5078 15.3177 35.2734 15.3438C35.0391 15.3568 34.8372 15.3763 34.668 15.4023C34.4727 15.4284 34.3034 15.4479 34.1602 15.4609C34.0169 15.474 33.8477 15.5 33.6523 15.5391C33.4831 15.5651 33.2747 15.5977 33.0273 15.6367C32.7799 15.6758 32.4935 15.7279 32.168 15.793C32.2461 15.7018 32.3177 15.6172 32.3828 15.5391C32.4479 15.4479 32.5065 15.3698 32.5586 15.3047C32.6107 15.2266 32.6628 15.1549 32.7148 15.0898ZM35.6445 17.4141C35.4102 17.4271 35.1758 17.4857 34.9414 17.5898C34.707 17.681 34.4987 17.8177 34.3164 18C34.1341 18.1693 33.9779 18.3711 33.8477 18.6055C33.7305 18.8268 33.6719 19.0742 33.6719 19.3477C33.6719 19.6211 33.737 19.862 33.8672 20.0703C34.0104 20.2656 34.1927 20.4284 34.4141 20.5586C34.6484 20.6888 34.8958 20.7669 35.1562 20.793C35.4297 20.819 35.6966 20.793 35.957 20.7148C36.2044 20.6237 36.4388 20.4805 36.6602 20.2852C36.8815 20.0768 37.0703 19.8555 37.2266 19.6211C37.3828 19.3737 37.4935 19.1328 37.5586 18.8984C37.6237 18.651 37.6302 18.4492 37.5781 18.293C37.474 17.9544 37.2396 17.7201 36.875 17.5898C36.5104 17.4466 36.1003 17.388 35.6445 17.4141ZM51.582 8.03906C51.8294 8.05208 52.0964 8.05859 52.3828 8.05859C52.6302 8.05859 52.9102 8.0651 53.2227 8.07812C53.5482 8.07812 53.8867 8.0651 54.2383 8.03906C53.9258 8.18229 53.6523 8.39062 53.418 8.66406C53.1836 8.9375 52.9948 9.21094 52.8516 9.48438C52.6693 9.8099 52.5195 10.1484 52.4023 10.5C52.3372 10.7083 52.2852 11.0794 52.2461 11.6133C52.207 12.1341 52.1745 12.7461 52.1484 13.4492C52.1354 14.1523 52.1289 14.8945 52.1289 15.6758C52.1289 16.457 52.1354 17.2057 52.1484 17.9219C52.1615 18.625 52.181 19.25 52.207 19.7969C52.2331 20.3438 52.2656 20.7279 52.3047 20.9492C52.3568 21.2096 52.4219 21.457 52.5 21.6914C52.5651 21.8997 52.6497 22.1146 52.7539 22.3359C52.8581 22.5443 52.9883 22.7135 53.1445 22.8438L51.1523 23.7422C51.0482 23.599 50.9635 23.4492 50.8984 23.293C50.8333 23.1497 50.7812 23.0195 50.7422 22.9023C50.6901 22.7591 50.6576 22.6289 50.6445 22.5117C50.6185 22.3555 50.5924 22.1862 50.5664 22.0039C50.5404 21.8086 50.5078 21.6263 50.4688 21.457C50.4427 21.2747 50.4232 21.125 50.4102 21.0078C50.3971 20.8906 50.3971 20.819 50.4102 20.793C50.4232 20.7669 50.3451 20.8841 50.1758 21.1445C50.0065 21.3919 49.7526 21.6849 49.4141 22.0234C49.0885 22.349 48.6849 22.668 48.2031 22.9805C47.7214 23.2799 47.181 23.4688 46.582 23.5469C45.9701 23.625 45.4036 23.5078 44.8828 23.1953C44.375 22.8828 43.9388 22.4466 43.5742 21.8867C43.2096 21.3138 42.9297 20.6562 42.7344 19.9141C42.5521 19.1589 42.4805 18.3906 42.5195 17.6094C42.5456 17.0885 42.6628 16.6263 42.8711 16.2227C43.0794 15.806 43.3398 15.4479 43.6523 15.1484C43.9779 14.8359 44.3294 14.5755 44.707 14.3672C45.0977 14.1458 45.4753 13.9635 45.8398 13.8203C46.2174 13.6771 46.569 13.5729 46.8945 13.5078C47.2201 13.4427 47.4805 13.3971 47.6758 13.3711C47.9102 13.3581 48.1771 13.3971 48.4766 13.4883C48.737 13.5664 49.0365 13.6966 49.375 13.8789C49.7266 14.0612 50.1172 14.3346 50.5469 14.6992C50.4688 13.3971 50.3971 12.3555 50.332 11.5742C50.2669 10.7799 50.2018 10.1745 50.1367 9.75781C50.0716 9.26302 50.013 8.92448 49.9609 8.74219C49.8958 8.61198 49.8112 8.48177 49.707 8.35156C49.6159 8.2474 49.4987 8.14323 49.3555 8.03906C49.2253 7.92188 49.069 7.83073 48.8867 7.76562C49.2253 7.83073 49.5508 7.8763 49.8633 7.90234C50.1758 7.92839 50.4622 7.95443 50.7227 7.98047C51.0221 8.00651 51.3086 8.02604 51.582 8.03906ZM46.6797 15.3242C46.4323 15.4154 46.2305 15.5716 46.0742 15.793C45.931 16.0143 45.8138 16.2812 45.7227 16.5938C45.6315 16.8932 45.5664 17.2188 45.5273 17.5703C45.5013 17.9089 45.4818 18.2409 45.4688 18.5664C45.4688 18.8789 45.4688 19.1654 45.4688 19.4258C45.4688 19.6862 45.4688 19.8815 45.4688 20.0117C45.4688 20.0898 45.4818 20.2331 45.5078 20.4414C45.5469 20.6367 45.625 20.8451 45.7422 21.0664C45.8594 21.2747 46.0221 21.4635 46.2305 21.6328C46.4518 21.8021 46.7448 21.8867 47.1094 21.8867C47.4089 21.8607 47.7279 21.7565 48.0664 21.5742C48.3659 21.418 48.7044 21.1706 49.082 20.832C49.4727 20.4805 49.8893 19.9792 50.332 19.3281C50.306 18.9115 50.2865 18.5664 50.2734 18.293C50.2734 18.0195 50.2669 17.7982 50.2539 17.6289C50.2409 17.4336 50.2344 17.2773 50.2344 17.1602V16.8672C50.2344 16.7891 50.2344 16.7044 50.2344 16.6133C50.2344 16.5221 50.2409 16.4375 50.2539 16.3594C49.8893 16.099 49.5638 15.8776 49.2773 15.6953C49.0039 15.5 48.7305 15.3568 48.457 15.2656C48.1966 15.1615 47.9232 15.1159 47.6367 15.1289C47.3633 15.1289 47.0443 15.194 46.6797 15.3242ZM53.8281 14.2695L57.4219 14.3086C57.2135 15.1029 57.0573 15.7799 56.9531 16.3398C56.862 16.8997 56.8034 17.3685 56.7773 17.7461C56.7253 18.1758 56.7122 18.5404 56.7383 18.8398C56.7773 19.1133 56.8424 19.4062 56.9336 19.7188C57.0117 19.9792 57.1289 20.2786 57.2852 20.6172C57.4414 20.9557 57.6497 21.2943 57.9102 21.6328C57.7539 21.5807 57.5846 21.5417 57.4023 21.5156C57.2201 21.4896 57.0508 21.4701 56.8945 21.457C56.7122 21.444 56.5299 21.444 56.3477 21.457C56.1654 21.4701 55.9635 21.4896 55.7422 21.5156C55.5599 21.5417 55.3385 21.5742 55.0781 21.6133C54.8177 21.6523 54.5443 21.7044 54.2578 21.7695C54.4531 21.1836 54.6029 20.6758 54.707 20.2461C54.8242 19.8164 54.9089 19.4583 54.9609 19.1719C55.013 18.8333 55.0456 18.5599 55.0586 18.3516C55.0586 18.0911 55.0586 17.7982 55.0586 17.4727C55.0586 17.1341 55.0586 16.8086 55.0586 16.4961C55.0586 16.1836 55.0521 15.9102 55.0391 15.6758C55.026 15.4284 55 15.2721 54.9609 15.207L54.7656 15.0117C54.6875 14.9466 54.5703 14.8555 54.4141 14.7383C54.2708 14.6081 54.0755 14.4518 53.8281 14.2695ZM55.2148 11.2617C55.4883 11.1185 55.7617 11.0794 56.0352 11.1445C56.3216 11.2096 56.543 11.3333 56.6992 11.5156C56.8555 11.6979 56.9076 11.9128 56.8555 12.1602C56.8164 12.4076 56.6081 12.6484 56.2305 12.8828C55.8529 13.1042 55.5208 13.1823 55.2344 13.1172C54.9479 13.0521 54.7461 12.9154 54.6289 12.707C54.5117 12.4987 54.4922 12.2578 54.5703 11.9844C54.6484 11.6979 54.8633 11.457 55.2148 11.2617ZM59.2188 20.8516C59.3099 20.4219 59.375 20.0443 59.4141 19.7188C59.4661 19.3802 59.5052 19.1003 59.5312 18.8789C59.5573 18.6185 59.5703 18.3971 59.5703 18.2148C59.5573 17.9935 59.5443 17.7331 59.5312 17.4336C59.5312 17.1211 59.5182 16.8151 59.4922 16.5156C59.4792 16.2031 59.4596 15.9297 59.4336 15.6953C59.4076 15.4479 59.375 15.2721 59.3359 15.168C59.2839 15.0638 59.2122 14.9531 59.1211 14.8359C58.9388 14.6146 58.6719 14.3997 58.3203 14.1914C58.6198 14.1263 58.8737 14.0742 59.082 14.0352C59.3034 13.9831 59.4857 13.9375 59.6289 13.8984C59.7852 13.8464 59.9219 13.8008 60.0391 13.7617C60.1432 13.7227 60.2669 13.6836 60.4102 13.6445C60.5273 13.6185 60.6706 13.5859 60.8398 13.5469C61.0091 13.5078 61.2044 13.4622 61.4258 13.4102L61.3672 15.1875C61.7839 14.6927 62.207 14.3216 62.6367 14.0742C63.0664 13.8268 63.4701 13.651 63.8477 13.5469C64.2773 13.4167 64.7005 13.3516 65.1172 13.3516C65.638 13.3776 66.1198 13.4622 66.5625 13.6055C67.0182 13.7487 67.4089 13.918 67.7344 14.1133C68.0729 14.2956 68.3464 14.4909 68.5547 14.6992C68.763 14.9076 68.8867 15.0898 68.9258 15.2461C69.082 15.7539 69.1211 16.2227 69.043 16.6523C68.9648 17.069 68.8607 17.4792 68.7305 17.8828C68.6133 18.2734 68.5091 18.6641 68.418 19.0547C68.3398 19.4453 68.3724 19.8685 68.5156 20.3242C68.5677 20.4414 68.6198 20.5586 68.6719 20.6758C68.724 20.7799 68.7891 20.8841 68.8672 20.9883C68.9453 21.0924 69.0365 21.1771 69.1406 21.2422C68.9974 21.2292 68.8542 21.2227 68.7109 21.2227C68.5677 21.2096 68.4375 21.1966 68.3203 21.1836C68.1771 21.1706 68.0469 21.1576 67.9297 21.1445C67.7995 21.1315 67.6237 21.125 67.4023 21.125C67.0247 21.125 66.4388 21.1445 65.6445 21.1836C65.7617 20.9102 65.8529 20.6823 65.918 20.5C65.9961 20.3047 66.0612 20.1484 66.1133 20.0312C66.1654 19.888 66.2044 19.7773 66.2305 19.6992C66.3867 19.3216 66.4779 18.8919 66.5039 18.4102C66.543 17.9284 66.5104 17.4401 66.4062 16.9453C66.3672 16.776 66.3021 16.5742 66.2109 16.3398C66.1198 16.1055 65.9961 15.8776 65.8398 15.6562C65.6966 15.4349 65.5208 15.2461 65.3125 15.0898C65.1172 14.9336 64.8893 14.8424 64.6289 14.8164C64.3685 14.7904 64.0755 14.8555 63.75 15.0117C63.4375 15.168 63.099 15.4544 62.7344 15.8711C62.4609 16.2227 62.2461 16.6523 62.0898 17.1602C61.9466 17.5898 61.849 18.1302 61.7969 18.7812C61.7448 19.4193 61.8229 20.168 62.0312 21.0273C61.849 21.0013 61.6797 20.9883 61.5234 20.9883C61.3672 20.9753 61.237 20.9622 61.1328 20.9492C61.0026 20.9362 60.8854 20.9232 60.7812 20.9102C60.6641 20.9102 60.5339 20.9036 60.3906 20.8906C60.2604 20.8906 60.0977 20.8906 59.9023 20.8906C59.707 20.8776 59.4792 20.8646 59.2188 20.8516ZM79.5508 14.7188C79.5117 14.4583 79.4792 14.2435 79.4531 14.0742C79.4271 13.8919 79.401 13.7487 79.375 13.6445C79.349 13.5143 79.3294 13.4167 79.3164 13.3516C79.2904 13.2865 79.2578 13.2148 79.2188 13.1367C79.1927 13.0716 79.1471 12.9935 79.082 12.9023C79.0299 12.8112 78.9648 12.707 78.8867 12.5898C79.056 12.6419 79.2253 12.6745 79.3945 12.6875C79.5768 12.7005 79.7461 12.7135 79.9023 12.7266C80.0716 12.7396 80.2474 12.7396 80.4297 12.7266C80.612 12.7266 80.8203 12.7201 81.0547 12.707C81.263 12.694 81.5104 12.6875 81.7969 12.6875C82.0964 12.6745 82.4349 12.6549 82.8125 12.6289C82.5911 12.681 82.4023 12.7721 82.2461 12.9023C82.1029 13.0195 81.9792 13.1497 81.875 13.293C81.7578 13.4492 81.6602 13.6185 81.582 13.8008C81.5169 13.9701 81.4779 14.2956 81.4648 14.7773C81.4518 15.2461 81.4518 15.806 81.4648 16.457C81.4779 17.0951 81.4909 17.7852 81.5039 18.5273C81.5299 19.2695 81.543 19.9792 81.543 20.6562C81.556 21.3333 81.556 21.9518 81.543 22.5117C81.5299 23.0586 81.4974 23.4622 81.4453 23.7227C81.263 24.543 80.9245 25.207 80.4297 25.7148C79.9349 26.2357 79.2839 26.5156 78.4766 26.5547C77.5 26.5938 76.7253 26.5026 76.1523 26.2812C75.5924 26.0599 75.1562 25.7865 74.8438 25.4609C74.5312 25.1484 74.2969 24.8294 74.1406 24.5039C73.9844 24.1784 73.8216 23.931 73.6523 23.7617C73.4961 23.6185 73.3398 23.4818 73.1836 23.3516C73.0404 23.2474 72.8906 23.1432 72.7344 23.0391C72.5911 22.9349 72.4479 22.8698 72.3047 22.8438C72.6823 22.8568 73.0208 22.8633 73.3203 22.8633C73.6198 22.8633 73.8737 22.8633 74.082 22.8633C74.3164 22.8633 74.5247 22.8568 74.707 22.8438H75.332H77.1094C76.849 22.9219 76.6536 23.0065 76.5234 23.0977C76.3932 23.2018 76.3021 23.306 76.25 23.4102C76.1979 23.5273 76.1719 23.6445 76.1719 23.7617C76.224 24.0742 76.3932 24.3021 76.6797 24.4453C76.9661 24.5885 77.3568 24.6732 77.8516 24.6992C78.3333 24.7253 78.6654 24.7122 78.8477 24.6602C79.0299 24.6211 79.1732 24.543 79.2773 24.4258C79.4857 24.1133 79.6615 23.7096 79.8047 23.2148C79.9089 22.7982 79.9805 22.2578 80.0195 21.5938C80.0716 20.9167 80.013 20.0898 79.8438 19.1133C79.4271 19.6862 78.9453 20.1159 78.3984 20.4023C77.8516 20.6888 77.3307 20.8971 76.8359 21.0273C76.25 21.1706 75.6576 21.2422 75.0586 21.2422C73.4831 21.1771 72.3047 20.8125 71.5234 20.1484C70.7422 19.4844 70.3841 18.5924 70.4492 17.4727C70.4883 16.9128 70.6576 16.3529 70.957 15.793C71.2695 15.2331 71.6732 14.7318 72.168 14.2891C72.6758 13.8464 73.2552 13.4948 73.9062 13.2344C74.5573 12.974 75.2344 12.8633 75.9375 12.9023C76.4714 12.9544 76.9727 13.0521 77.4414 13.1953C77.8451 13.3255 78.2422 13.5078 78.6328 13.7422C79.0365 13.9766 79.3424 14.3021 79.5508 14.7188ZM73.3398 16.6719C73.2617 17.1797 73.2943 17.6549 73.4375 18.0977C73.5938 18.5404 73.8086 18.9245 74.082 19.25C74.3555 19.5625 74.6615 19.8099 75 19.9922C75.3385 20.1615 75.6576 20.2396 75.957 20.2266C76.582 20.2135 77.1224 19.9336 77.5781 19.3867C78.0339 18.8268 78.3073 17.9935 78.3984 16.8867C78.4375 16.3398 78.3659 15.8711 78.1836 15.4805C78.0143 15.0768 77.7995 14.7513 77.5391 14.5039C77.2786 14.2565 77.0052 14.0807 76.7188 13.9766C76.4323 13.8724 76.2044 13.8268 76.0352 13.8398C75.8008 13.8659 75.5404 13.9375 75.2539 14.0547C74.9805 14.1589 74.7135 14.3216 74.4531 14.543C74.1927 14.7513 73.9583 15.0312 73.75 15.3828C73.5547 15.7344 73.418 16.1641 73.3398 16.6719Z" fill="#171717"/>
<path d="M18.6714 16.623C18.0302 15.4029 17.6257 13.7573 18.5113 12.7184C19.3821 11.6953 21.0065 11.9081 22.1269 12.6186C23.2376 13.3212 24.0877 14.3864 24.9159 15.4318C25.2437 14.255 25.6887 13.1151 26.2413 12.0329C26.6183 11.2961 27.0854 10.5488 27.8116 10.1981C29.0618 9.59397 30.5873 10.4529 31.3147 11.6756C31.7377 12.3861 31.9763 13.2162 31.9983 14.0528C32.0421 15.7181 31.2518 17.2822 30.3528 18.6593C29.5628 19.8693 28.6716 21.0072 27.6923 22.0554C27.362 22.4089 27.0077 22.7617 26.5644 22.9336C25.427 23.3741 23.0757 21.5038 22.1744 20.8039C20.7408 19.6908 19.5318 18.2601 18.6714 16.623Z" fill="#D92D20"/>
</svg>
